<svg xmlns="http://www.w3.org/2000/svg" width="61" height="54" fill="none" viewBox="0 0 61 54">
  <path stroke="#20409A" stroke-linecap="round" stroke-width="1.3507" d="M57.0463 8.0356c3.1258 2.1315 3.1258 4.2631 0 6.3946-3.1258 2.1316-3.1258 4.2632 0 6.3947 3.1258 2.1316 3.1258 4.2631 0 6.3947-3.1258 2.1315-3.1258 4.2631 0 6.3946 3.1258 2.1316 3.1258 4.2631 0 6.3947-3.1258 2.1316-3.1258 4.2631 0 6.3947"/>
  <path fill="#20409A" stroke="#000" stroke-width=".3377" d="M13.3845 31.3056c2.5309 7.8501 10.9593 12.1659 18.825 9.6405 3.9442-1.2664 6.3734-3.9352 8.1141-7.3246.0421-.0543.1533-.1221.3699-.1753.2156-.0529.5003-.083.8332-.088.6647-.0101 1.497.0803 2.3.2667.8052.1869 1.5661.4669 2.0969.8278.5337.3627.7935.7748.7122 1.2319-.0447.2514-.1787.5925-.4013 1.0075-.2212.4124-.5245.8879-.899 1.4058-.7488 1.0358-1.7765 2.2338-2.9856 3.4259-2.4215 2.3873-5.552 4.7327-8.6056 5.7131-11.2685 3.6181-23.3421-2.5651-26.9674-13.8097C3.1516 22.1826 9.3471 10.1337 20.6156 6.5157c8.8987-2.8572 18.1142.087 23.4588 7.1113.264.4178.2415 1.0106-.0059 1.6955-.2461.6815-.7017 1.4151-1.2348 2.0717-.5331.6564-1.1352 1.2255-1.666 1.5822-.2661.1788-.5064.2989-.7055.3534-.1781.0488-.3007.0395-.3815-.0004-3.4117-6.0484-10.1494-9.0211-17.0361-6.81-7.8657 2.5255-12.191 10.9362-9.6601 18.7862Z"/>
  <path fill="#FFD724" d="M39.9102 18.8301c-.097-.2383-.144-.5225-.1369-.8422.0146-.6703.268-1.4374.7123-2.1592.9621-1.5636 2.4797-2.4001 3.4563-1.9049.9766.4952.9874 2.1074.0253 3.671-.4443.7218-1.0303 1.3187-1.6516 1.6829-.6724.3935-1.3133.4727-1.8041.2235-.2753-.1388-.4781-.3684-.6007-.6696l-.0006-.0015Zm.9201 13.9811c.2166-.1395.4876-.2386.8037-.2912.6627-.1104 1.4651-.0048 2.2584.2964 1.7187.6521 2.8248 1.9843 2.5192 3.034-.3057 1.0497-1.891 1.3606-3.6096.7085-.7933-.3012-1.4901-.7646-1.9644-1.3059-.5127-.5861-.71-1.1997-.5561-1.7273.0855-.2958.2737-.5374.5474-.7137l.0014-.0008Z"/>
  <path fill="#000" d="M39.7672 19.017c-.1127-.277-.1727-.6049-.1754-.9719-.0057-.7695.2439-1.6425.7016-2.4574.9912-1.7652 2.6071-2.6774 3.6803-2.0772 1.0732.6001 1.1368 2.4524.1457 4.2177-.4577.8148-1.0728 1.4817-1.7337 1.8801-.7153.4304-1.4066.5008-1.9459.1988-.3025-.1683-.5295-.4385-.6719-.7884l-.0007-.0017Zm4.0534-5.2347-.1532.2718c-.7416-.4139-2.0371.4278-2.8292 1.8393-.4043.7219-.6254 1.4844-.6213 2.1477.0042.5999.1904 1.0331.5268 1.2214.3364.1882.8048.121 1.3195-.1884.569-.3415 1.1054-.9289 1.5121-1.6499.792-1.4114.8368-2.9534.0945-3.3691l.1531-.2718-.0023-.001Zm-3.1353 19.0355c.2455-.1673.5518-.2945.9081-.3743.7469-.1675 1.6483-.1095 2.5369.1622 1.9249.5882 3.1518 1.9609 2.7941 3.1264-.3576 1.1654-2.1453 1.6168-4.0702 1.0286-.8885-.2717-1.6664-.727-2.1928-1.283-.569-.6021-.7829-1.2566-.6028-1.8423.1-.3284.3149-.605.6252-.8165l.0015-.0011Zm5.9426 2.8232-.2965-.0911c.2463-.8051-.8447-1.8825-2.3837-2.3524-.787-.2395-1.5749-.2932-2.2189-.1496-.5825.1303-.9645.4017-1.0767.7671-.1122.3653.0516.8048.4609 1.238.4517.4791 1.1357.8748 1.9223 1.1169 1.539.4699 3.0477.1887 3.2956-.6174l.2965.091.0005-.0025Z"/>
  <path fill="#ED1C24" stroke="#000" stroke-width=".2701" d="M19.9913 28.9231c1.1594 4.2999 5.5922 6.8474 9.9005 5.6905 2.157-.5793 3.4039-1.713 4.4319-3.4947.0144-.0147.0554-.0396.1499-.0533.0978-.0141.2285-.0125.3836.0066.3094.0381.6934.1426 1.0606.298.3682.1557.7088.3582.9387.5862.2306.2286.3308.4618.2782.692-.0604.2648-.287.6734-.6629 1.1611-.3724.4829-.8803 1.0294-1.4856 1.5685-1.212 1.0797-2.8022 2.1192-4.4581 2.5639-6.1148 1.6419-12.4052-1.9737-14.0504-8.0753-1.6452-6.1015 1.9775-12.3791 8.0922-14.0211 4.829-1.2967 9.6751.5142 12.3481 4.4034.1194.2128.0977.5129-.0506.8686-.1473.3531-.4075.7306-.7084 1.0666-.3009.3359-.6354.6224-.9247.7971-.1452.0877-.2726.1433-.3743.1659-.0808.018-.1313.0125-.162-.0001-1.6841-3.3416-5.2368-5.1158-9.0048-4.104-4.3082 1.1569-6.8614 5.5802-5.7019 9.8801Z"/>
  <path fill="#FFD724" d="M34.5875 22.9069c-.0458-.1304-.0636-.284-.0515-.4553.0253-.3592.1812-.764.4383-1.1396.5568-.8137 1.3926-1.223 1.9035-.9321.5109.2909.4747 1.1559-.0821 1.9697-.2571.3756-.5869.6805-.9296.8598-.371.1936-.7168.2194-.9735.0731-.1441-.0816-.2469-.21-.3048-.3748l-.0003-.0008Zm-.1236 8.0924c.1244-.0583.2747-.0978.4454-.1158.358-.038.7741.0224 1.1714.1696.8607.3186 1.3489.9292 1.1118 1.3906-.2371.4614-1.0967.5729-1.9574.2543-.3973-.1472-.7319-.3648-.9434-.6133-.2285-.2691-.2885-.5451-.1692-.777.0665-.13.1833-.2342.3406-.308l.0008-.0004Z"/>
  <path fill="#000" d="M34.5025 23.0048c-.0532-.1514-.0769-.3289-.0687-.5258.0169-.4129.1736-.8747.4403-1.2998.5776-.9212 1.4681-1.3685 2.0281-1.0188.56.3498.5459 1.345-.0317 2.2661-.2668.4252-.6141.7669-.9789.9635-.3949.2122-.7675.2321-1.0489.0561-.1579-.0981-.2726-.2489-.3398-.4403l-.0004-.001Zm2.3104-2.7025-.0892.1418c-.3869-.2412-1.1038.1766-1.5654.9131-.2356.3768-.3741.78-.3891 1.1359-.0134.3219.0752.5591.2507.6688.1755.1096.4285.0858.7126-.0669.3141-.1684.6171-.4695.854-.8457.4616-.7365.5258-1.5624.1385-1.8046l.0892-.1418-.0013-.0006Zm-2.418 10.6461c.1236-.0617.2759-.1016.4516-.117.3683-.0323.8069.0469 1.2344.2226.9263.3804 1.4943 1.0767 1.2936 1.5858-.2007.5091-1.0833.6096-2.0095.2292-.4276-.1758-.797-.4284-1.0414-.7122-.2642-.3072-.3539-.6175-.2529-.8733.0561-.1435.1672-.2567.3234-.3347l.0008-.0004Zm2.8369 1.6326-.1427-.0588c.1383-.3518-.37-.9057-1.1105-1.2097-.3787-.1551-.7621-.2258-1.0796-.1982-.2872.0251-.4797.1261-.5427.2857-.0629.1596.0072.3691.1972.5901.2097.2444.5347.4645.9131.6207.7406.304 1.4832.2647 1.6222-.0875l.1427.0588.0003-.0011Z"/>
</svg>
